<?xml version="1.0" standalone="no"?><!DOCTYPE svg PUBLIC "-//W3C//DTD SVG 1.1//EN" "http://www.w3.org/Graphics/SVG/1.1/DTD/svg11.dtd"><svg class="icon" width="128px" height="128.00px" viewBox="0 0 1024 1024" version="1.1" xmlns="http://www.w3.org/2000/svg"><path fill="#2c2c2c" d="M155.151515 868.848485a31.030303 31.030303 0 0 1-3.630545-61.843394L155.151515 806.787879h48.469333V496.484848a93.090909 93.090909 0 0 1 87.629576-92.935757L296.742788 403.393939h62.060606c10.860606 0 21.317818 1.861818 31.030303 5.275152V279.272727a93.090909 93.090909 0 0 1 87.598545-92.935757L482.924606 186.181818h62.060606a93.090909 93.090909 0 0 1 92.935758 87.629576l0.155151 5.461333v253.517576c7.757576-2.730667 15.980606-4.468364 24.54497-5.057939l6.485333-0.217212h62.060606a93.090909 93.090909 0 0 1 92.935758 87.629575l0.155151 5.461334-0.03103 186.181818H868.848485a31.030303 31.030303 0 0 1 3.630545 61.843394L868.848485 868.848485h-713.69697z m203.651879-403.39394h-62.060606a31.030303 31.030303 0 0 0-30.844121 27.399758L265.712485 496.484848v310.303031h124.121212V496.484848a31.030303 31.030303 0 0 0-27.430788-30.81309L358.803394 465.454545z m217.212121-186.181818a31.030303 31.030303 0 0 0-27.430788-30.813091L544.985212 248.242424h-62.060606a31.030303 31.030303 0 0 0-30.844121 27.399758L451.894303 279.272727v527.515152h124.121212V279.272727z m155.151515 310.303031h-62.060606a31.030303 31.030303 0 0 0-30.844121 27.399757l-0.186182 3.630546v186.181818h124.121212v-186.181818a31.030303 31.030303 0 0 0-27.430788-30.813091L731.16703 589.575758z" /></svg>