<?xml version="1.0" standalone="no"?><!DOCTYPE svg PUBLIC "-//W3C//DTD SVG 1.1//EN" "http://www.w3.org/Graphics/SVG/1.1/DTD/svg11.dtd"><svg class="icon" width="128px" height="128.00px" viewBox="0 0 1024 1024" version="1.1" xmlns="http://www.w3.org/2000/svg"><path fill="#2c2c2c" d="M510.304 128a32 32 0 0 1 3.712 63.776L510.304 192h-237.44a81.248 81.248 0 0 0-80.704 75.584L192 272.864v478.272a81.248 81.248 0 0 0 75.584 80.704l5.28 0.16h478.272a81.248 81.248 0 0 0 80.704-75.584l0.16-5.28v-239.552a32 32 0 0 1 63.776-3.744l0.224 3.744v239.552c0 77.44-61.44 141.12-138.08 144.704l-6.784 0.16H272.864a145.216 145.216 0 0 1-144.704-138.08L128 751.136V272.864c0-77.44 61.44-141.12 138.08-144.704L272.864 128h237.44z m280.704 9.728l2.592 3.072 96.8 129.12L889.6 268.8c1.088 1.472 2.048 2.976 2.88 4.576l1.216 2.688 0.8 2.272 0.96 3.648 0.48 4v3.968a31.872 31.872 0 0 1-8.416 20.096L793.6 435.2a32 32 0 0 1-53.408-35.04l2.208-3.36 56.448-75.2-10.272 0.736c-40.128 3.2-79.552 9.6-116.16 19.84-43.776 12.288-81.056 29.44-110.176 52a287.712 287.712 0 0 0-64.832 67.616 288.576 288.576 0 0 0-48.704 133.344l-0.48 6.4-0.384 9.728a32 32 0 0 1-63.552 0.928l-0.32-4.064c-0.064-13.664 1.856-34.56 7.68-60.352a352.096 352.096 0 0 1 52.928-122.112 350.912 350.912 0 0 1 78.816-82.336c36-27.904 80.576-48.416 131.776-62.752 40.928-11.488 84.32-18.528 128.288-22.048l17.568-1.216L742.4 179.2a32 32 0 0 1 48.608-41.472z" /></svg>