<?xml version="1.0" standalone="no"?><!DOCTYPE svg PUBLIC "-//W3C//DTD SVG 1.1//EN" "http://www.w3.org/Graphics/SVG/1.1/DTD/svg11.dtd"><svg class="icon" width="128px" height="128.00px" viewBox="0 0 1024 1024" version="1.1" xmlns="http://www.w3.org/2000/svg"><path fill="#2c2c2c" d="M310.144 895.232c-70.368 0-129.024-52.672-132.512-119.456l-0.16-6.304V578.24c-36-9.408-62.816-42.24-65.28-81.312l-0.192-5.92V423.68c0-47.328 35.68-86.912 81.344-89.792l5.312-0.16h94.016c-15.488-12.288-27.84-25.536-36.512-39.968-22.144-36.928-16.768-77.6 17.728-112.768 26.24-26.72 58.368-35.904 91.712-27.616 40.512 10.048 78.72 43.776 116.704 93.76 7.392 9.728 14.496 19.744 21.312 29.92l6.976 10.688 6.976-10.688c3.392-5.088 6.88-10.144 10.432-15.136l10.88-14.752c37.984-50.016 76.192-83.744 116.704-93.792 33.344-8.288 65.472 0.896 91.712 27.616 34.496 35.168 39.872 75.84 17.728 112.768-8.64 14.432-21.024 27.68-36.512 40h94.016c46.4 0 83.808 37.824 86.496 84.48l0.16 5.44v67.392c0 41.664-27.68 77.344-65.44 87.232v191.2c0 67.648-56.544 122.336-126.144 125.6l-6.56 0.16H310.144z m168.448-314.24H241.44v188.48c0 31.84 27.808 59.168 63.552 61.568l5.12 0.192 168.48-0.032v-250.208z m301.12 0h-237.12v250.208h168.448c36.48 0 65.92-25.856 68.48-57.216l0.192-4.512v-188.48z m-301.12-183.296H198.656c-10.976 0-20.864 9.536-22.432 22.4l-0.224 3.552v67.392c0 13.408 8.96 24.032 19.68 25.728l2.976 0.224h279.936v-119.296z m343.936 0h-279.936v119.296h279.936c10.976 0 20.864-9.536 22.432-22.368l0.224-3.584V423.68c0-13.376-8.96-24.032-19.68-25.728l-2.976-0.224zM319.584 225.76c-14.336 14.624-15.52 23.424-8.544 35.04 8.32 13.856 27.488 29.344 54.016 44.096 15.04 8.32 31.36 15.904 47.68 22.464l12.8 4.928 3.968 1.44 34.4-0.032-4.32-7.008c-8.832-14.016-18.336-27.808-28.224-40.832-29.792-39.232-58.848-64.864-81.152-70.4-11.328-2.816-20.256-0.256-30.624 10.304z m351.392-10.304c-22.304 5.536-51.328 31.168-81.152 70.4-11.52 15.2-22.528 31.456-32.608 47.84h34.496l0.576-0.192c4.128-1.472 9.6-3.52 16.128-6.144 16.32-6.56 32.64-14.112 47.68-22.464 26.56-14.752 45.76-30.24 54.048-44.096 6.976-11.616 5.792-20.416-8.544-35.04-10.368-10.56-19.296-13.12-30.624-10.304z" /></svg>