<?xml version="1.0" standalone="no"?><!DOCTYPE svg PUBLIC "-//W3C//DTD SVG 1.1//EN" "http://www.w3.org/Graphics/SVG/1.1/DTD/svg11.dtd"><svg class="icon" width="128px" height="128.00px" viewBox="0 0 1024 1024" version="1.1" xmlns="http://www.w3.org/2000/svg"><path fill="#2c2c2c" d="M768 128a160 160 0 0 1 159.84 153.056L928 288v384a160 160 0 0 1-153.056 159.84L768 832h-143.776l-90.816 81.76a32 32 0 0 1-36.256 4.576l-3.392-2.048-3.168-2.528L399.68 832H256a160 160 0 0 1-159.392-146.016l-0.448-7.04L96 672V288a160 160 0 0 1 153.056-159.84L256 128h512z m0 64H256a96 96 0 0 0-95.84 90.368L160 288v384a96 96 0 0 0 90.368 95.84L256 768h155.904a32 32 0 0 1 18.336 5.76l3.072 2.432 78.656 70.752 78.624-70.72a32 32 0 0 1 13.664-7.264l3.84-0.704 3.904-0.256H768a96 96 0 0 0 95.84-90.368L864 672V288a96 96 0 0 0-90.368-95.84L768 192z m-48 224a48 48 0 1 1-0.032 96 48 48 0 0 1 0.064-96z m-192.096 0a48 48 0 1 1-0.032 96 48 48 0 0 1 0.032-96zM336 416a48 48 0 1 1-0.032 96 48 48 0 0 1 0.032-96z" /></svg>