<?xml version="1.0" standalone="no"?><!DOCTYPE svg PUBLIC "-//W3C//DTD SVG 1.1//EN" "http://www.w3.org/Graphics/SVG/1.1/DTD/svg11.dtd"><svg class="icon" width="128px" height="128.00px" viewBox="0 0 1024 1024" version="1.1" xmlns="http://www.w3.org/2000/svg"><path fill="#2c2c2c" d="M768 128a128 128 0 0 1 128 128v512a128 128 0 0 1-128 128H256a128 128 0 0 1-128-128V256a128 128 0 0 1 128-128h512z m-171.104 416.576l-1.664 0.992-117.792 119.936a75.84 75.84 0 0 1-95.744 4.576l-1.952-1.568-43.776-27.36-4.064-3.04a12.8 12.8 0 0 0-10.72-2.752l-1.536 0.64L192 730.016V768a64 64 0 0 0 59.2 63.84L256 832h512a64 64 0 0 0 63.84-59.2L832 768v-17.92l-223.136-203.616a12.704 12.704 0 0 0-11.968-1.888zM768 192H256a64 64 0 0 0-63.84 59.2L192 256v394.56l91.392-67.264a75.936 75.936 0 0 1 86.016 2.944l2.08 1.632 43.584 27.232 4.064 3.04c3.68 3.2 9.28 3.616 12.544 2.112l1.472-0.928 117.792-119.904c25.92-23.424 64.64-25.792 94.56-5.248l4.896 3.648L832 663.52V256a64 64 0 0 0-59.2-63.84L768 192zM336 288a80 80 0 1 1 0 160 80 80 0 0 1 0-160z m0 64a16 16 0 1 0 0 32 16 16 0 0 0 0-32z" /></svg>